# xmcd CD database file generated by Grip 3.2.0
# 
# Track frame offsets:
#       183
#       2893
#       20070
#       38628
#       59380
#       100623
#       122268
#       144683
#       168413
#       212280
#       230968
#       251798
#       255040
# 
# Disc length: 3778 seconds
# 
# Revision: 2
# Processed by: cddbd v1.5.2PL0 Copyright (c) Steve Scherf et al.
# Submitted via: Grip 3.2.0
# 
DISCID=a60ec00d
DTITLE=The Blues Brothers Band - Blues for You (Live in Montreux 1992)
DYEAR=1999
DGENRE=Blues
TTITLE0=Intro
TTITLE1=You Got the Bucks
TTITLE2=She Caught the Caty
TTITLE3=Can't Play the Blues (In Air-Conditioned Room)
TTITLE4=The Thrill Is Gone
TTITLE5=Just for You
TTITLE6=Raise Your Hand
TTITLE7=Big Bird
TTITLE8=Knock on Wood - Funky Broadway - Knock on Wood
TTITLE9=Soul Man
TTITLE10=Everybody Needs Somebody to Love
TTITLE11=Outro
TTITLE12=Sweet Home Chicago
EXTD=
EXTT0=
EXTT1=
EXTT2=
EXTT3=
EXTT4=
EXTT5=
EXTT6=
EXTT7=
EXTT8=
EXTT9=
EXTT10=
EXTT11=
EXTT12=
PLAYORDER=
